<?xml version="1.0" standalone="no"?>
<!DOCTYPE svg PUBLIC "-//W3C//DTD SVG 20010904//EN"
 "http://www.w3.org/TR/2001/REC-SVG-20010904/DTD/svg10.dtd">
<svg version="1.0" xmlns="http://www.w3.org/2000/svg"
 width="700.000000pt" height="700.000000pt" viewBox="0 0 700.000000 700.000000"
 preserveAspectRatio="xMidYMid meet">
<metadata>
Created by potrace 1.14, written by Peter Selinger 2001-2017
</metadata>
<g transform="translate(0.000000,700.000000) scale(0.100000,-0.100000)"
fill="#000000" stroke="none">
<path d="M3225 6309 c-198 -19 -436 -71 -639 -140 -694 -236 -1293 -763 -1615
-1423 -145 -295 -224 -556 -273 -901 -17 -120 -17 -570 0 -690 49 -345 128
-606 273 -901 136 -279 323 -537 556 -765 214 -211 436 -372 694 -502 298
-151 581 -238 934 -289 120 -17 570 -17 690 0 352 50 638 139 934 289 684 346
1217 988 1427 1718 232 803 103 1666 -349 2343 -121 180 -234 317 -388 468
-154 149 -244 223 -423 342 -372 248 -832 409 -1291 452 -128 12 -400 11 -530
-1z m655 -213 c580 -89 1093 -353 1500 -772 205 -211 348 -415 476 -679 91
-189 136 -309 184 -499 62 -247 75 -354 75 -646 0 -292 -13 -399 -75 -646 -86
-337 -234 -648 -448 -934 -112 -150 -362 -400 -512 -512 -290 -216 -602 -365
-945 -451 -238 -59 -347 -72 -635 -72 -291 0 -396 13 -645 75 -197 50 -314 93
-520 195 -279 138 -491 292 -711 518 -209 213 -351 416 -480 682 -91 189 -136
309 -184 499 -51 202 -71 345 -77 559 -5 148 -4 177 8 177 23 0 159 -40 189
-55 25 -13 28 -20 32 -85 6 -77 15 -99 137 -320 76 -139 103 -175 141 -195 63
-32 146 -9 181 52 9 15 33 80 53 144 22 72 48 134 68 162 80 111 142 187 150
185 4 -2 31 -54 58 -117 77 -178 123 -223 279 -267 117 -33 206 -31 273 9 75
44 110 106 132 231 20 115 47 163 114 201 28 17 91 53 139 80 113 65 214 163
236 230 22 63 21 109 -2 184 l-19 61 43 25 c58 34 119 50 263 69 140 19 204
40 265 87 102 78 131 151 121 306 l-7 102 25 10 c14 5 86 17 159 26 74 9 198
25 275 35 120 17 154 18 225 9 124 -17 240 -8 324 26 142 57 322 187 376 273
69 109 21 209 -127 264 -54 20 -78 22 -289 23 -256 2 -282 5 -403 47 -169 58
-185 59 -682 56 -408 -3 -465 -1 -555 16 -168 31 -320 74 -438 123 -109 46
-115 47 -212 47 -91 0 -111 -4 -217 -42 -122 -42 -244 -66 -313 -60 l-40 3 95
71 c369 276 818 451 1290 503 125 14 525 6 650 -13z m-1348 -684 c135 -61 344
-118 538 -147 82 -13 187 -16 477 -15 205 0 379 3 387 6 29 11 201 -17 305
-51 153 -49 201 -55 435 -56 116 -1 222 -4 235 -8 23 -6 22 -9 -35 -54 -32
-26 -95 -66 -139 -90 l-80 -42 -215 0 c-150 0 -256 -5 -350 -18 -399 -53 -412
-56 -474 -115 -21 -20 -47 -57 -58 -81 -18 -40 -20 -57 -14 -158 l7 -114 -31
-29 c-38 -36 -72 -45 -221 -65 -190 -25 -283 -61 -370 -142 -72 -68 -85 -139
-49 -266 10 -34 11 -53 4 -65 -21 -34 -124 -108 -225 -162 -57 -30 -123 -74
-146 -97 -53 -53 -98 -141 -113 -224 -7 -35 -18 -82 -24 -104 -10 -37 -14 -40
-51 -43 -62 -5 -161 25 -189 58 -12 15 -43 77 -67 136 -35 88 -53 119 -94 160
-112 116 -218 90 -342 -85 -25 -36 -61 -83 -79 -103 -39 -44 -87 -135 -104
-198 -10 -39 -13 -42 -22 -25 -6 11 -34 63 -63 115 -46 83 -53 104 -58 167
-12 152 -75 209 -298 268 l-115 30 14 100 c18 128 80 373 127 501 45 122 177
393 241 494 81 127 207 291 303 392 90 95 93 97 116 82 37 -24 192 -37 298
-24 109 13 174 29 282 69 107 40 172 41 257 3z"/>
<path d="M2830 3378 c-19 -13 -58 -58 -86 -101 -67 -102 -95 -130 -179 -184
-140 -90 -228 -195 -229 -273 -1 -59 17 -85 103 -154 44 -36 82 -77 105 -115
90 -148 193 -115 333 108 91 145 102 155 210 197 110 43 164 79 186 127 38 79
10 157 -91 256 -37 36 -98 86 -136 110 -56 37 -79 46 -125 49 -46 3 -62 0 -91
-20z m149 -222 c55 -41 109 -96 94 -96 -31 0 -188 -77 -227 -111 -24 -22 -72
-84 -105 -138 l-61 -98 -43 42 c-23 23 -53 49 -66 58 -32 21 -24 31 98 111
103 68 157 120 217 210 20 31 39 56 42 56 2 0 25 -15 51 -34z"/>
<path d="M3463 2716 c-57 -26 -85 -97 -65 -169 l10 -36 -46 7 c-26 4 -108 7
-182 7 -161 -1 -225 -15 -355 -80 -156 -77 -249 -166 -297 -285 -45 -112 -20
-338 53 -488 35 -71 82 -109 164 -132 59 -17 202 -7 310 20 44 11 98 20 121
20 61 0 192 -53 281 -113 107 -73 177 -99 283 -104 69 -4 97 -1 150 17 216 72
352 273 337 495 -12 169 -72 273 -218 375 -99 69 -104 77 -180 243 -71 157
-259 272 -366 223z m198 -326 c42 -127 108 -213 223 -293 112 -77 137 -119
144 -237 4 -68 1 -85 -20 -132 -47 -101 -128 -159 -235 -166 -79 -5 -118 8
-217 76 -84 57 -186 103 -291 129 -66 17 -143 13 -254 -13 -119 -28 -173 -34
-212 -24 -42 12 -48 23 -79 147 -48 193 -10 281 161 376 139 77 244 94 435 70
72 -9 147 -13 167 -9 63 12 127 81 127 138 l0 23 20 -25 c11 -14 25 -41 31
-60z"/>
</g>
</svg>
